<svg width="1440" height="330" viewBox="0 0 1440 330" fill="none" xmlns="http://www.w3.org/2000/svg">
<path d="M573.304 65.5235C617.83 52.6825 664.726 50.3311 710.313 58.6535L831.767 80.8264C835.708 81.5459 839.719 81.811 843.72 81.6163L1062.68 70.967C1104.51 68.9328 1112.53 129.477 1071.61 138.401C1040.03 145.291 1034.83 188.142 1063.85 202.384L1067.13 203.996C1100.8 220.52 1089.04 271.184 1051.53 271.184H981.762C977.926 271.184 974.102 271.611 970.361 272.459L785.205 314.401C739.915 324.66 692.862 324.265 647.75 313.248L573.224 295.046C569.397 294.111 565.479 293.597 561.541 293.512L342.486 288.797C300.858 287.901 296.664 227.478 337.769 220.84L382.663 213.59C407.681 209.55 409.937 174.427 385.641 167.22C362.971 160.495 362.88 128.42 385.512 121.567L516.487 81.9092L573.304 65.5235Z" fill="white"/>
<path d="M1336.54 76.7302C1377.89 110.211 1389.75 164.108 1363.02 197.112C1336.3 230.116 1281.12 229.729 1239.77 196.248C1198.42 162.767 1186.56 108.871 1213.28 75.8665C1240 42.8625 1295.19 43.2492 1336.54 76.7302Z" fill="#E3ECFF"/>
<path d="M1253.07 108.082L1156.03 105.9L1167.9 94.9723C1189.84 74.7703 1208.65 51.4084 1223.71 25.6574L1230.75 13.6179L1253.07 108.082Z" fill="#E3ECFF"/>
<path d="M1111.31 72.3176C1103.9 69.2446 1099.81 62.1215 1102.18 56.4078C1104.55 50.6941 1112.48 48.5534 1119.89 51.6264C1127.3 54.6994 1131.39 61.8225 1129.02 67.5362C1126.65 73.2499 1118.73 75.3906 1111.31 72.3176Z" fill="white"/>
<path d="M1140.5 72.2919L1118.54 73.6899L1125.97 55.7708L1140.5 72.2919Z" fill="white"/>
<path d="M1145.8 44.6985C1144.62 40.1807 1146.48 35.7869 1149.95 34.8848C1153.42 33.9827 1157.18 36.9138 1158.36 41.4316C1159.53 45.9495 1157.67 50.3432 1154.21 51.2453C1150.74 52.1474 1146.97 49.2163 1145.8 44.6985Z" fill="white"/>
<path d="M1156.02 58.2369L1147.69 48.5348L1158.57 45.7056L1156.02 58.2369Z" fill="white"/>
</svg>
