<svg width="31" height="31" viewBox="0 0 31 31" fill="none" xmlns="http://www.w3.org/2000/svg">
<path d="M15.629 27.9427C22.5721 27.9427 28.2005 22.3142 28.2005 15.3712C28.2005 8.42822 22.5721 2.7998 15.629 2.7998C8.68604 2.7998 3.05762 8.42822 3.05762 15.3712C3.05762 22.3142 8.68604 27.9427 15.629 27.9427Z" stroke="black" stroke-opacity="0.8" stroke-width="2" stroke-linecap="round" stroke-linejoin="round"/>
<path d="M11.9707 11.6C12.2663 10.7598 12.8496 10.0513 13.6175 9.60004C14.3854 9.14876 15.2882 8.9838 16.166 9.13437C17.0438 9.28494 17.8401 9.74134 18.4137 10.4227C18.9872 11.1041 19.3012 11.9665 19.2998 12.8571C19.2998 15.3714 15.5284 16.6286 15.5284 16.6286" stroke="black" stroke-opacity="0.8" stroke-width="2" stroke-linecap="round" stroke-linejoin="round"/>
<path d="M15.6289 21.6572H15.6415" stroke="black" stroke-opacity="0.8" stroke-width="2" stroke-linecap="round" stroke-linejoin="round"/>
</svg>
