<svg width="1440" height="700" viewBox="0 0 1440 700" fill="none" xmlns="http://www.w3.org/2000/svg">
<rect y="162" width="1440" height="538" fill="#FFC7C2"/>
<path fill-rule="evenodd" clip-rule="evenodd" d="M1440 236.289C1440 236.288 1440 236.288 1440 236.287V0H0V368.329H0.0030559V437.531H0.169507C-0.00864737 446.835 -0.00318889 455.477 0.00159549 463.052C0.00234907 464.245 0.00308594 465.412 0.00308594 466.551C0.00308594 523.263 59.1722 568.309 144.5 568.309C192.665 568.309 238.869 553.956 269.98 531.254C274.153 528.517 279.124 524.537 284.898 519.915C304.891 503.909 334.515 480.193 374 473.658C412.55 466.184 443.112 483.253 465.754 502.069C474.261 510.747 483.329 519.298 492.627 527.583C498.893 533.932 503.809 538.729 507.379 540.361C527.554 557.373 547.996 572.843 565.502 585.421C620.576 624.99 679.253 539.078 705.662 469.168C720.143 452.414 740.456 436.973 768.501 436.973C808.511 436.973 836.216 461.852 853.541 477.438C879.576 505.636 912.152 526.265 947.501 526.265C974.758 526.265 1000.37 513.999 1022.6 495.456C1027.25 492.564 1033.56 487.76 1041.13 482.001L1041.13 482C1068.39 461.26 1111.92 428.138 1152.5 427.349C1197.77 428.41 1233.65 447.129 1256.99 459.304C1262.28 462.064 1266.93 464.487 1270.89 466.292C1288.96 477.862 1308.75 484.967 1329.5 484.967C1372.8 484.967 1411.95 454.009 1440 416.102V236.289Z" fill="#FFF9E2"/>
</svg>
