<svg width="201" height="351" viewBox="0 0 201 351" fill="none" xmlns="http://www.w3.org/2000/svg">
<path d="M127.014 224.742L126.573 221.022C121.857 181.179 131.823 140.983 154.605 107.957V107.957" stroke="#E5D486" stroke-width="4"/>
<path d="M171.169 81.7658C169.608 88.5368 162.772 92.7418 155.901 91.1578C149.03 89.5738 144.726 82.8007 146.287 76.0296C147.848 69.2585 154.683 65.0536 161.554 66.6376C168.425 68.2216 172.73 74.9947 171.169 81.7658Z" fill="#F380A3"/>
<path d="M151.991 90.2564C150.43 97.0275 143.595 101.232 136.724 99.6485C129.853 98.0645 125.548 91.2913 127.109 84.5203C128.67 77.7492 135.506 73.5442 142.377 75.1282C149.248 76.7122 153.552 83.4853 151.991 90.2564Z" fill="#F380A3"/>
<path d="M168.342 94.0259C166.781 100.797 159.946 105.002 153.075 103.418C146.204 101.834 141.899 95.0608 143.46 88.2897C145.021 81.5186 151.857 77.3137 158.728 78.8977C165.599 80.4817 169.903 87.2548 168.342 94.0259Z" fill="#F380A3"/>
<path d="M183.627 97.5495C182.066 104.321 175.231 108.526 168.36 106.942C161.489 105.358 157.184 98.5845 158.745 91.8134C160.306 85.0423 167.141 80.8373 174.012 82.4213C180.883 84.0053 185.188 90.7785 183.627 97.5495Z" fill="#F380A3"/>
<path d="M154.869 108.627C153.308 115.398 146.472 119.603 139.602 118.019C132.731 116.435 128.426 109.662 129.987 102.891C131.548 96.12 138.383 91.9151 145.254 93.4991C152.125 95.0831 156.43 101.856 154.869 108.627Z" fill="#F380A3"/>
<path d="M172.997 112.806C171.436 119.578 164.601 123.783 157.73 122.199C150.859 120.615 146.554 113.841 148.115 107.07C149.676 100.299 156.512 96.0943 163.383 97.6783C170.254 99.2623 174.558 106.035 172.997 112.806Z" fill="#F380A3"/>
<circle cx="154.356" cy="93.1999" r="9.5" transform="rotate(12.9819 154.356 93.1999)" fill="#FFF9E2"/>
<path d="M67.6164 82.635C67.6164 86.2988 64.5612 89.269 60.7925 89.269C57.0237 89.269 53.9686 86.2988 53.9686 82.635C53.9686 78.9711 57.0237 76.001 60.7925 76.001C64.5612 76.001 67.6164 78.9711 67.6164 82.635Z" fill="#F380A3"/>
<path d="M58.6478 89.269C58.6478 92.9328 55.5926 95.9029 51.8239 95.9029C48.0552 95.9029 45 92.9328 45 89.269C45 85.6051 48.0552 82.635 51.8239 82.635C55.5926 82.635 58.6478 85.6051 58.6478 89.269Z" fill="#F380A3"/>
<path d="M67.6164 89.269C67.6164 92.9328 64.5612 95.9029 60.7925 95.9029C57.0237 95.9029 53.9686 92.9328 53.9686 89.269C53.9686 85.6051 57.0237 82.635 60.7925 82.635C64.5612 82.635 67.6164 85.6051 67.6164 89.269Z" fill="#F380A3"/>
<path d="M76 89.269C76 92.9328 72.9448 95.9029 69.1761 95.9029C65.4074 95.9029 62.3522 92.9328 62.3522 89.269C62.3522 85.6051 65.4074 82.635 69.1761 82.635C72.9448 82.635 76 85.6051 76 89.269Z" fill="#F380A3"/>
<path d="M62.3522 98.367C62.3522 102.031 59.297 105.001 55.5283 105.001C51.7596 105.001 48.7044 102.031 48.7044 98.367C48.7044 94.7031 51.7596 91.733 55.5283 91.733C59.297 91.733 62.3522 94.7031 62.3522 98.367Z" fill="#F380A3"/>
<path d="M72.2956 98.367C72.2956 102.031 69.2404 105.001 65.4717 105.001C61.703 105.001 58.6478 102.031 58.6478 98.367C58.6478 94.7031 61.703 91.733 65.4717 91.733C69.2404 91.733 72.2956 94.7031 72.2956 98.367Z" fill="#F380A3"/>
<circle cx="61" cy="90.001" r="5" fill="#FFF9E2"/>
<path d="M105.504 47.0061L106.5 107.502L104.504 167.006" stroke="#E5D486" stroke-width="4"/>
<path d="M66.9999 105L67.2805 105.874C79.7508 144.676 79.3015 186.475 65.9999 225V225" stroke="#E5D486" stroke-width="4"/>
<path d="M119.233 13.268C119.233 20.5957 113.122 26.5359 105.585 26.5359C98.0474 26.5359 91.9371 20.5957 91.9371 13.268C91.9371 5.94027 98.0474 0 105.585 0C113.122 0 119.233 5.94027 119.233 13.268Z" fill="#F380A3"/>
<path d="M101.296 26.5359C101.296 33.8636 95.1853 39.8039 87.6478 39.8039C80.1103 39.8039 74 33.8636 74 26.5359C74 19.2082 80.1103 13.268 87.6478 13.268C95.1853 13.268 101.296 19.2082 101.296 26.5359Z" fill="#F380A3"/>
<path d="M119.233 26.5359C119.233 33.8636 113.122 39.8039 105.585 39.8039C98.0474 39.8039 91.9371 33.8636 91.9371 26.5359C91.9371 19.2082 98.0474 13.268 105.585 13.268C113.122 13.268 119.233 19.2082 119.233 26.5359Z" fill="#F380A3"/>
<path d="M136 26.5359C136 33.8636 129.89 39.8039 122.352 39.8039C114.815 39.8039 108.704 33.8636 108.704 26.5359C108.704 19.2082 114.815 13.268 122.352 13.268C129.89 13.268 136 19.2082 136 26.5359Z" fill="#F380A3"/>
<path d="M108.704 44.732C108.704 52.0597 102.594 58 95.0566 58C87.5191 58 81.4088 52.0597 81.4088 44.732C81.4088 37.4043 87.5191 31.4641 95.0566 31.4641C102.594 31.4641 108.704 37.4043 108.704 44.732Z" fill="#F380A3"/>
<path d="M128.591 44.732C128.591 52.0597 122.481 58 114.943 58C107.406 58 101.296 52.0597 101.296 44.732C101.296 37.4043 107.406 31.4641 114.943 31.4641C122.481 31.4641 128.591 37.4043 128.591 44.732Z" fill="#F380A3"/>
<circle cx="104.5" cy="29.5" r="7.5" fill="#FFF9E2"/>
<path fill-rule="evenodd" clip-rule="evenodd" d="M158.776 305.562C181.903 305.562 200.651 285.252 200.651 260.198C200.651 235.143 181.903 214.833 158.776 214.833C135.649 214.833 116.901 235.143 116.901 260.198C116.901 285.252 135.649 305.562 158.776 305.562ZM158.952 286.996C172.653 286.996 183.76 274.998 183.76 260.198C183.76 245.397 172.653 233.399 158.952 233.399C145.251 233.399 134.144 245.397 134.144 260.198C134.144 274.998 145.251 286.996 158.952 286.996Z" fill="#C2C3E1"/>
<path fill-rule="evenodd" clip-rule="evenodd" d="M41.875 305.562C65.0019 305.562 83.7501 285.252 83.7501 260.198C83.7501 235.143 65.0019 214.833 41.875 214.833C18.7482 214.833 0 235.143 0 260.198C0 285.252 18.7482 305.562 41.875 305.562ZM42.051 286.996C55.7522 286.996 66.8593 274.998 66.8593 260.198C66.8593 245.397 55.7522 233.399 42.051 233.399C28.3497 233.399 17.2427 245.397 17.2427 260.198C17.2427 274.998 28.3497 286.996 42.051 286.996Z" fill="#C2C3E1"/>
<path d="M167.5 266.217C167.5 313.001 137.425 350.927 100.326 350.927C63.2262 350.927 33.1511 313.001 33.1511 266.217C33.1511 219.433 63.2262 181.507 100.326 181.507C137.425 181.507 167.5 219.433 167.5 266.217Z" fill="#C2C3E1"/>
<path d="M100.326 226.522L48.4589 159L67.8668 161.112C89.4423 163.46 111.209 163.46 132.785 161.112L152.192 159L100.326 226.522Z" fill="#C2C3E1"/>
</svg>
