<svg width="31" height="31" viewBox="0 0 31 31" fill="none" xmlns="http://www.w3.org/2000/svg">
<g clip-path="url(#clip0_864_117)">
<path d="M11.8577 27.943C12.552 27.943 13.1149 27.3802 13.1149 26.6859C13.1149 25.9916 12.552 25.4287 11.8577 25.4287C11.1634 25.4287 10.6006 25.9916 10.6006 26.6859C10.6006 27.3802 11.1634 27.943 11.8577 27.943Z" stroke="black" stroke-opacity="0.8" stroke-width="2" stroke-linecap="round" stroke-linejoin="round"/>
<path d="M25.6859 27.943C26.3802 27.943 26.943 27.3802 26.943 26.6859C26.943 25.9916 26.3802 25.4287 25.6859 25.4287C24.9916 25.4287 24.4287 25.9916 24.4287 26.6859C24.4287 27.3802 24.9916 27.943 25.6859 27.943Z" stroke="black" stroke-opacity="0.8" stroke-width="2" stroke-linecap="round" stroke-linejoin="round"/>
<path d="M1.7998 1.54297H6.82838L10.1975 18.3761C10.3125 18.9549 10.6273 19.4748 11.087 19.8448C11.5467 20.2149 12.1218 20.4114 12.7118 20.4001H24.9312C25.5212 20.4114 26.0964 20.2149 26.556 19.8448C27.0157 19.4748 27.3306 18.9549 27.4455 18.3761L29.4569 7.82868H8.08552" stroke="black" stroke-opacity="0.8" stroke-width="2" stroke-linecap="round" stroke-linejoin="round"/>
</g>
<defs>
<clipPath id="clip0_864_117">
<rect width="30.1714" height="30.1714" fill="white" transform="translate(0.542969 0.285645)"/>
</clipPath>
</defs>
</svg>
