<svg width="1440" height="1176" viewBox="0 0 1440 1176" fill="none" xmlns="http://www.w3.org/2000/svg">
<rect width="1440" height="1176" fill="#FFF9E2"/>
<path d="M595.185 68.2309C645.1 47.9486 700.212 44.2453 752.392 57.6671L786.508 66.4425C791.114 67.6271 795.879 68.0652 800.623 67.7401L926.854 59.0901C962.252 56.6643 971.583 106.995 937.667 117.42V117.42C913.831 124.746 908.946 156.335 929.457 170.519L933.935 173.616C960.148 191.743 947.32 232.846 915.45 232.846H885.349C881.026 232.846 876.729 233.515 872.611 234.83L782.074 263.726C740.829 276.889 696.437 276.391 655.499 262.303L633.317 254.67C628.9 253.15 624.278 252.305 619.609 252.163L490.664 248.253C455.484 247.186 450.602 196.858 484.921 189.049L510.795 183.162C531.185 178.523 533.608 150.448 514.314 142.384V142.384C496.782 135.057 496.691 110.25 514.169 102.794L595.185 68.2309V68.2309Z" fill="white"/>
<path d="M1102.62 67.7679C1131.9 91.2294 1140.3 128.997 1121.38 152.124C1102.46 175.252 1063.38 174.981 1034.1 151.519C1004.82 128.057 996.426 90.2898 1015.35 67.1626C1034.27 44.0353 1073.34 44.3063 1102.62 67.7679Z" fill="#E3ECFF"/>
<path d="M1043.52 89.7369L974.807 88.2083L975.948 87.1694C996.303 68.6257 1013.75 47.1798 1027.71 23.5425V23.5425L1043.52 89.7369Z" fill="#E3ECFF"/>
<path d="M984.506 36.0209C983.674 32.8551 984.991 29.7763 987.447 29.1441C989.903 28.512 992.569 30.5659 993.401 33.7317C994.233 36.8976 992.916 39.9764 990.46 40.6086C988.004 41.2407 985.338 39.1868 984.506 36.0209Z" fill="white"/>
<path d="M991.748 45.5079L985.849 38.7092L993.552 36.7267L991.748 45.5079Z" fill="white"/>
<path d="M969.505 54.3985C964.255 52.2451 961.36 47.2537 963.037 43.2498C964.714 39.246 970.329 37.7459 975.578 39.8993C980.827 42.0527 983.723 47.0441 982.046 51.0479C980.369 55.0518 974.754 56.5518 969.505 54.3985Z" fill="white"/>
<path d="M990.17 54.3804L974.623 55.3601L979.883 42.8034L990.17 54.3804Z" fill="white"/>
</svg>
